<svg version="1.1" xmlns="http://www.w3.org/2000/svg" width="204" height="192">
    <path d="M0 0 C67.32 0 134.64 0 204 0 C204 63.36 204 126.72 204 192 C136.68 192 69.36 192 0 192 C0 128.64 0 65.28 0 0 Z " fill="#285154" transform="translate(0,0)"/>
    <path d="M0 0 C0.11710916 16.74258745 0.20512248 33.48504083 0.25906086 50.22793961 C0.28477771 58.00301097 0.31980229 65.77782698 0.37719727 73.55273438 C0.4272333 80.33404274 0.45933833 87.11516604 0.47044247 93.89665389 C0.4769274 97.48325895 0.49202955 101.06933488 0.52865028 104.65576935 C0.56932327 108.6721128 0.56993661 112.6875525 0.56762695 116.70410156 C0.58560333 117.87655426 0.60357971 119.04900696 0.62210083 120.25698853 C0.54259268 133.10096161 -4.13368931 142.23616672 -12.9921875 151.1875 C-23.83106763 161.52892668 -37.38104645 169.85543361 -51.48828125 174.95703125 C-55.90504859 176.79105439 -59.99354773 179.29743452 -64.1171875 181.70703125 C-67 183 -67 183 -69.30078125 182.8125 C-71 182 -71 182 -72.3125 180.1875 C-73.15254806 177.51461981 -73.29254394 176.50430388 -72 174 C-69.625 172.625 -69.625 172.625 -66 171 C-64.18186659 170.01027926 -62.3698272 169.0093189 -60.5625 168 C-57.46116892 166.29153267 -54.41448422 164.68503529 -51.125 163.375 C-47.92471015 161.96687246 -45.67646527 160.21764266 -43 158 C-42.34 158 -41.68 158 -41 158 C-40.7525 157.46375 -40.505 156.9275 -40.25 156.375 C-39 154 -39 154 -37.0625 151.375 C-32.01982854 143.1233558 -31.55582039 134.68075006 -31.56762695 125.20654297 C-31.5574353 123.96637924 -31.54724365 122.72621552 -31.53674316 121.44847107 C-31.51188877 118.079209 -31.49991771 114.71038147 -31.49388909 111.34106588 C-31.48445013 107.80829393 -31.45824272 104.27564534 -31.43388367 100.74295044 C-31.3903658 94.06739834 -31.36172884 87.39187039 -31.33856028 80.71622002 C-31.31142927 73.11025714 -31.26752296 65.50441927 -31.22227156 57.89854598 C-31.12963628 42.26576177 -31.05785939 26.63295397 -31 11 C-29.72348117 10.35491928 -28.44617275 9.7114009 -27.16853333 9.06854248 C-26.10170932 8.53075228 -26.10170932 8.53075228 -25.01333332 7.98209763 C-22.70329052 6.85526605 -20.37430849 5.92815127 -17.94921875 5.078125 C-17.08619141 4.77519531 -16.22316406 4.47226563 -15.33398438 4.16015625 C-14.46064453 3.85980469 -13.58730469 3.55945313 -12.6875 3.25 C-11.79482422 2.93417969 -10.90214844 2.61835937 -9.98242188 2.29296875 C-3.38641437 -0 -3.38641437 -0 0 0 Z " fill="#F9F9FA" transform="translate(120,4)"/>
    <path d="M0 0 C2.87305972 1.40460697 4.74510999 2.74510999 7 5 C7.47025629 9.98471662 7.07908998 13.00858706 4 17 C0.31150969 19.45899354 -2.71887962 19.80114533 -7 19 C-10.60199656 16.47093858 -11.76443405 14.76212513 -13.0625 10.5625 C-12.98541095 6.16842411 -11.78058336 4.33670003 -9 1 C-5.93570224 -0.53214888 -3.3834358 -0.22938548 0 0 Z " fill="#F7F9F9" transform="translate(149,95)"/>
    <path d="M0 0 C2.75329021 1.79562405 4.52627461 3.05254922 6 6 C6.39447548 10.18144011 6.45035186 12.30946048 4.125 15.875 C1.26113472 18.73886528 -0.42340179 19.20433297 -4.375 19.375 C-7.8830628 19.32424025 -8.69409716 19.25236984 -11.5 16.9375 C-13.32030373 13.37273854 -14.07058335 11.02325099 -14 7 C-10.52942614 0.89233655 -6.83172687 -0.5789599 0 0 Z " fill="#F7F9F9" transform="translate(150,46)"/>
    <path d="M0 0 C7.26 0 14.52 0 22 0 C19.36703251 2.63296749 16.98473788 4.83950667 14.125 7.125 C6.75852004 13.55866686 3.26903222 21.64521802 1 31 C0.67 31 0.34 31 0 31 C0 20.77 0 10.54 0 0 Z " fill="#F9FAFA" transform="translate(0,0)"/>
    <path d="M0 0 C7.26 0 14.52 0 22 0 C22 10.23 22 20.46 22 31 C20.11171718 28.16757578 19.27990411 26.01514041 18.25 22.8125 C15.25098289 14.44391917 10.49995239 9.08329366 3.734375 3.4453125 C2 2 2 2 0 0 Z " fill="#F9FAFA" transform="translate(182,0)"/>
    <path d="M0 0 C0.33 0 0.66 0 1 0 C1 10.23 1 20.46 1 31 C-5.6 31 -12.2 31 -19 31 C-17.35 29.35 -15.7 27.7 -14 26 C-6.58346474 18.41062176 -2.12256767 10.41987763 0 0 Z " fill="#F7F9F9" transform="translate(203,161)"/>
    <path d="M0 0 C2 4 2 4 3.25 7.625 C6.51183696 16.31246676 11.07036771 22.62206725 18.2421875 28.50390625 C18.82226562 28.99761719 19.40234375 29.49132812 20 30 C20 30.33 20 30.66 20 31 C13.4 31 6.8 31 0 31 C0 20.77 0 10.54 0 0 Z " fill="#F8F9F9" transform="translate(0,161)"/>
</svg>